#Comment line ignore any data following # character 
#Hierarchical Translation and Rotation (.htr) file 
[Header]	
#Header keywords are followed by a single value 
FileType HTR		#Single word string
DataType HTRS		#Translation followed by rotation and scale data
FileVersion 1		#integer
NumSegments 25		#integer
NumFrames 5		#integer
DataFrameRate 30		#integer, data frame rate in this file
EulerRotationOrder ZYX
CalibrationUnits mm
RotationUnits Degrees
GlobalAxisofGravity Y
BoneLengthAxis Y
ScaleFactor 1.00
[SegmentNames&Hierarchy]
#CHILD	PARENT
BN_Tick_Root GLOBAL
BN_Torso BN_Tick_Root
BN_L_Leg_Front01 BN_Torso
BN_L_Leg_Rear01 BN_Torso
BN_MetalTop BN_Torso
BN_Neck BN_Torso
BN_R_Leg_Front01 BN_Torso
BN_R_Leg_Rear01 BN_Torso
BN_Sack BN_Torso
BN_L_Leg_Front02 BN_L_Leg_Front01
BN_L_Leg_Front03 BN_L_Leg_Front02
BN_L_Leg_Rear02 BN_L_Leg_Rear01
BN_L_Leg_Rear03 BN_L_Leg_Rear02
BN_Head BN_Neck
BN_Needle BN_Head
BN_R_Leg_Front02 BN_R_Leg_Front01
BN_R_Leg_Front03 BN_R_Leg_Front02
BN_R_Leg_Rear02 BN_R_Leg_Rear01
BN_R_Leg_Rear03 BN_R_Leg_Rear02
BN_SackDef01 BN_Sack
BN_SackDef02 BN_Sack
BN_SackDef03 BN_Sack
BN_SackDef04 BN_Sack
BN_SackDef05 BN_Sack
BN_SackDef06 BN_Sack
[BasePosition]
#SegmentName Tx, Ty, Tz, Rx, Ry, Rz, BoneLength
BN_Tick_Root 0.000000 0.000000 0.000000 -90.000000 0.000000 0.000000 10.000000 
BN_Torso 0.000000 0.000000 0.000000 0.000000 0.000000 0.000000 10.000000 
BN_L_Leg_Front01 0.000000 0.000000 0.000000 0.000000 0.000000 0.000000 10.000000 
BN_L_Leg_Rear01 0.000000 0.000000 0.000000 0.000000 0.000000 0.000000 10.000000 
BN_MetalTop 0.000000 0.000000 0.000000 0.000000 0.000000 0.000000 10.000000 
BN_Neck 0.000000 0.000000 0.000000 0.000000 0.000000 0.000000 10.000000 
BN_R_Leg_Front01 0.000000 0.000000 0.000000 0.000000 0.000000 0.000000 10.000000 
BN_R_Leg_Rear01 0.000000 0.000000 0.000000 0.000000 0.000000 0.000000 10.000000 
BN_Sack 0.000000 0.000000 0.000000 0.000000 0.000000 0.000000 10.000000 
BN_L_Leg_Front02 0.000000 0.000000 0.000000 0.000000 0.000000 0.000000 10.000000 
BN_L_Leg_Front03 0.000000 0.000000 0.000000 0.000000 0.000000 0.000000 10.000000 
BN_L_Leg_Rear02 0.000000 0.000000 0.000000 0.000000 0.000000 0.000000 10.000000 
BN_L_Leg_Rear03 0.000000 0.000000 0.000000 0.000000 0.000000 0.000000 10.000000 
BN_Head 0.000000 0.000000 0.000000 0.000000 0.000000 0.000000 10.000000 
BN_Needle 0.000000 0.000000 0.000000 0.000000 0.000000 0.000000 10.000000 
BN_R_Leg_Front02 0.000000 0.000000 0.000000 0.000000 0.000000 0.000000 10.000000 
BN_R_Leg_Front03 0.000000 0.000000 0.000000 0.000000 0.000000 0.000000 10.000000 
BN_R_Leg_Rear02 0.000000 0.000000 0.000000 0.000000 0.000000 0.000000 10.000000 
BN_R_Leg_Rear03 0.000000 0.000000 0.000000 0.000000 0.000000 0.000000 10.000000 
BN_SackDef01 0.000000 0.000000 0.000000 0.000000 0.000000 0.000000 10.000000 
BN_SackDef02 0.000000 0.000000 0.000000 0.000000 0.000000 0.000000 10.000000 
BN_SackDef03 0.000000 0.000000 0.000000 0.000000 0.000000 0.000000 10.000000 
BN_SackDef04 0.000000 0.000000 0.000000 0.000000 0.000000 0.000000 10.000000 
BN_SackDef05 0.000000 0.000000 0.000000 0.000000 0.000000 0.000000 10.000000 
BN_SackDef06 0.000000 0.000000 0.000000 0.000000 0.000000 0.000000 10.000000 
#Beginning of Data. Separated by tabs
#Fr	Tx	Ty	Tz	Rx	Ry	Rz	SF
[BN_Tick_Root]
14 0.000000 0.000000 0.000000 0.000000 0.000000 -0.000020 0.000000
15 0.000000 0.000000 0.000000 0.000000 0.000000 -0.000020 0.000000
16 0.000000 0.000000 0.000000 0.000000 0.000000 -0.000020 0.000000
17 0.000000 0.000000 0.000000 0.000000 0.000000 -0.000020 0.000000
18 0.000000 0.000000 0.000000 0.000000 0.000000 -0.000020 0.000000
[BN_Torso]
14 3.101407 23.475925 210.944366 -23.707148 -3.868606 1.172969 212.269318
15 3.095382 20.697634 213.415451 -24.196621 -3.936621 0.532056 214.439087
16 3.095382 20.697634 213.304214 -22.433010 -3.089032 0.551347 214.328415
17 3.095382 20.697634 213.192978 -20.670336 -2.242440 0.596720 214.217712
18 3.095382 20.697634 213.081741 -18.911612 -1.398318 0.625689 214.106995
[BN_L_Leg_Front01]
14 -68.477791 10.734189 -26.804373 -69.830757 41.558102 130.412048 74.316254
15 -68.477791 10.734189 -26.804373 -70.242538 41.276970 130.233093 74.316254
16 -68.477791 10.734189 -26.804373 -69.534889 43.430168 130.374069 74.316254
17 -68.477791 10.734189 -26.804373 -68.792747 45.582684 130.558380 74.316254
18 -68.477791 10.734189 -26.804373 -68.010483 47.732445 130.791519 74.316254
[BN_L_Leg_Rear01]
14 -72.133743 -73.994843 -18.268616 14.899889 63.800388 -174.498627 104.939293
15 -72.133743 -73.994843 -18.268616 12.574012 64.388443 -176.219955 104.939293
16 -72.133743 -73.994843 -18.268616 17.132116 64.855919 -172.497971 104.939293
17 -72.133743 -73.994843 -18.268616 21.823412 65.193336 -168.641769 104.939293
18 -72.133743 -73.994843 -18.268616 26.605097 65.395020 -164.694046 104.939293
[BN_MetalTop]
14 0.000008 13.737477 26.403606 92.110573 -18.896347 -97.445389 29.763546
15 0.000008 13.737477 26.403606 91.842506 -21.322815 -97.505966 29.763546
16 0.000008 13.737477 26.403606 91.700745 -22.627995 -97.543816 29.763546
17 0.000008 13.737477 26.403606 91.976791 -20.106712 -97.486816 29.763546
18 0.000008 13.737477 26.403606 92.251366 -17.585709 -97.417938 29.763546
[BN_Neck]
14 0.000014 95.233284 10.002091 -89.999672 -65.297531 89.999657 95.757088
15 0.000014 95.233284 10.002091 -89.999672 -65.297531 89.999657 95.757088
16 0.000014 95.233284 10.002091 -89.999672 -65.297531 89.999657 95.757088
17 0.000014 95.233284 10.002091 -89.999672 -65.297531 89.999657 95.757088
18 0.000014 95.233284 10.002091 -89.999672 -65.297531 89.999657 95.757088
[BN_R_Leg_Front01]
14 68.477768 10.734107 -26.804314 76.154793 39.492630 57.167290 74.316193
15 68.477768 10.734107 -26.804314 76.058350 38.775730 58.318520 74.316193
16 68.477768 10.734107 -26.804314 74.062164 39.791138 56.472965 74.316193
17 68.477768 10.734107 -26.804314 71.993820 40.755520 54.554096 74.316193
18 68.477768 10.734107 -26.804314 69.854225 41.665253 52.562809 74.316193
[BN_R_Leg_Rear01]
14 72.133751 -73.994873 -18.268644 31.575989 71.149185 53.435543 104.939331
15 72.133751 -73.994873 -18.268644 34.576687 69.787018 58.794632 104.939331
16 72.133751 -73.994873 -18.268644 31.073595 70.659447 55.549240 104.939331
17 72.133751 -73.994873 -18.268644 32.302425 71.400558 56.375042 104.939331
18 72.133751 -73.994873 -18.268644 33.614922 72.135490 57.285336 104.939331
[BN_Sack]
14 -0.000000 -78.024918 33.657791 91.379875 -11.014523 -97.199577 84.974907
15 -0.000000 -78.024918 33.657791 91.379883 -11.014522 -97.199585 84.974907
16 -0.000000 -78.024918 33.657791 91.379883 -11.014522 -97.199577 84.974907
17 -0.000000 -78.024918 33.657791 91.379875 -11.014522 -97.199577 84.974907
18 -0.000000 -78.024918 33.657791 91.379875 -11.014523 -97.199577 84.974907
[BN_L_Leg_Front02]
14 142.805023 -0.000015 -0.000104 -0.060728 0.806158 -141.237289 142.805023
15 142.805023 -0.000015 -0.000104 -0.043593 0.785007 -139.139923 142.805023
16 142.805023 -0.000015 -0.000104 -0.043593 0.785007 -139.139923 142.805023
17 142.805023 -0.000015 -0.000104 -0.043593 0.785007 -139.139923 142.805023
18 142.805023 -0.000015 -0.000104 -0.043593 0.785007 -139.139923 142.805023
[BN_L_Leg_Front03]
14 124.143021 -0.000045 0.000007 0.353826 -0.269507 143.064026 124.143021
15 124.143021 -0.000045 0.000007 0.354143 -0.276861 141.784729 124.143021
16 124.143021 -0.000045 0.000007 0.354143 -0.276861 141.784729 124.143021
17 124.143021 -0.000045 0.000007 0.354143 -0.276861 141.784729 124.143021
18 124.143021 -0.000045 0.000007 0.354143 -0.276861 141.784744 124.143021
[BN_L_Leg_Rear02]
14 139.939041 0.000075 -0.000022 0.080054 -0.232806 96.135010 139.939041
15 139.939041 0.000075 -0.000022 0.081181 -0.235335 95.942474 139.939041
16 139.939041 0.000075 -0.000022 0.079413 -0.232056 96.331322 139.939041
17 139.939041 0.000075 -0.000022 0.077666 -0.228765 96.720161 139.939041
18 139.939041 0.000075 -0.000022 0.075942 -0.225462 97.109009 139.939041
[BN_L_Leg_Rear03]
14 142.839615 0.000179 -0.000060 0.000508 -0.002292 -114.973618 142.839615
15 142.839615 0.000179 -0.000060 0.000503 -0.002293 -114.756882 142.839615
16 142.839615 0.000179 -0.000060 0.000512 -0.002291 -115.191780 142.839615
17 142.839615 0.000179 -0.000060 0.000521 -0.002289 -115.626686 142.839615
18 142.839615 0.000179 -0.000060 0.000529 -0.002287 -116.061607 142.839615
[BN_Head]
14 57.062447 -0.000030 0.000000 12.571101 -3.704464 -7.838923 57.062447
15 57.062447 -0.000030 0.000000 13.104590 -4.063999 -8.406864 57.062447
16 57.062447 -0.000030 0.000000 12.548203 -4.704316 -6.600582 57.062447
17 57.062447 -0.000030 0.000000 11.971116 -5.326969 -4.785868 57.062447
18 57.062447 -0.000030 0.000000 11.374064 -5.930889 -2.963550 57.062447
[BN_Needle]
14 33.915161 69.677544 -0.000060 0.000003 0.000030 87.896805 77.493217
15 33.915161 69.677544 -0.000060 0.000003 0.000030 87.896805 77.493217
16 33.915161 69.677544 -0.000060 0.000003 0.000030 87.896805 77.493217
17 33.915161 69.677544 -0.000060 0.000003 0.000030 87.896805 77.493217
18 33.915161 69.677544 -0.000060 0.000003 0.000030 87.896805 77.493217
[BN_R_Leg_Front02]
14 142.804947 -0.000060 0.000060 -0.108653 0.538925 115.736176 142.804947
15 142.804947 -0.000060 0.000060 -0.117474 0.517836 113.738708 142.804947
16 142.804947 -0.000060 0.000060 -0.114927 0.524346 114.283447 142.804947
17 142.804947 -0.000060 0.000060 -0.112317 0.530832 114.828201 142.804947
18 142.804947 -0.000060 0.000060 -0.109647 0.537293 115.372963 142.804947
[BN_R_Leg_Front03]
14 124.143005 -0.000060 -0.000156 -0.352915 -0.370494 -124.100670 124.143005
15 124.143005 -0.000060 -0.000156 -0.352758 -0.377954 -122.373192 124.143005
16 124.143005 -0.000060 -0.000156 -0.353250 -0.376444 -122.864426 124.143005
17 124.143005 -0.000060 -0.000156 -0.353755 -0.374939 -123.355659 124.143005
18 124.143005 -0.000060 -0.000156 -0.354273 -0.373438 -123.846893 124.143005
[BN_R_Leg_Rear02]
14 139.939011 -0.000149 0.000015 0.018458 -0.257080 -124.900063 139.939011
15 139.939011 -0.000149 0.000015 0.026752 -0.263052 -127.600067 139.939011
16 139.939011 -0.000149 0.000015 0.052501 -0.271617 -133.739685 139.939011
17 139.939011 -0.000149 0.000015 0.053604 -0.249031 -134.856018 139.939011
18 139.939011 -0.000149 0.000015 0.059142 -0.266068 -135.759720 139.939011
[BN_R_Leg_Rear03]
14 142.839417 0.000075 0.000119 0.002118 -0.001012 141.078522 142.839417
15 142.839417 0.000075 0.000119 0.002101 -0.001046 142.930191 142.839417
16 142.839417 0.000075 0.000119 0.002065 -0.001116 146.805496 142.839417
17 142.839417 0.000075 0.000119 0.002059 -0.001127 147.392914 142.839417
18 142.839417 0.000075 0.000119 0.002053 -0.001138 147.980362 142.839417
[BN_SackDef01]
14 249.782272 -3.760844 42.949425 -128.408218 -44.374973 -11.740845 253.475800
15 249.782272 -3.760844 42.949425 -128.408218 -44.374973 -11.740845 253.475800
16 249.782272 -3.760844 42.949425 -128.408218 -44.374973 -11.740845 253.475800
17 249.782272 -3.760844 42.949425 -128.408218 -44.374973 -11.740845 253.475800
18 249.782272 -3.760844 42.949425 -128.408218 -44.374973 -11.740845 253.475800
[BN_SackDef02]
14 138.789795 -62.131748 45.674385 32.077126 -27.375721 -88.781525 158.773758
15 138.789795 -62.131748 45.674385 32.077126 -27.375721 -88.781525 158.773758
16 138.789795 -62.131748 45.674385 32.077126 -27.375721 -88.781525 158.773758
17 138.789795 -62.131748 45.674385 32.077126 -27.375721 -88.781525 158.773758
18 138.789795 -62.131748 45.674385 32.077126 -27.375721 -88.781525 158.773758
[BN_SackDef03]
14 249.782272 -3.760785 -42.949661 18.144459 44.375008 -11.740894 253.475845
15 249.782272 -3.760785 -42.949661 18.144459 44.375008 -11.740894 253.475845
16 249.782272 -3.760785 -42.949661 18.144459 44.375008 -11.740894 253.475845
17 249.782272 -3.760785 -42.949661 18.144459 44.375008 -11.740894 253.475845
18 249.782272 -3.760785 -42.949661 18.144459 44.375008 -11.740894 253.475845
[BN_SackDef04]
14 138.789780 -62.131645 -45.674473 146.059982 27.375723 -88.781555 158.773743
15 138.789780 -62.131645 -45.674473 146.059982 27.375723 -88.781555 158.773743
16 138.789780 -62.131645 -45.674473 146.059982 27.375723 -88.781555 158.773743
17 138.789780 -62.131645 -45.674473 146.059982 27.375723 -88.781555 158.773743
18 138.789780 -62.131645 -45.674473 146.059982 27.375723 -88.781555 158.773743
[BN_SackDef05]
14 118.790161 46.167137 -63.831196 0.155741 51.314110 90.605110 142.537460
15 118.790161 46.167137 -63.831196 0.155741 51.314110 90.605110 142.537460
16 118.790161 46.167137 -63.831196 0.155741 51.314110 90.605110 142.537460
17 118.790161 46.167137 -63.831196 0.155741 51.314110 90.605110 142.537460
18 118.790161 46.167137 -63.831196 0.155741 51.314110 90.605110 142.537460
[BN_SackDef06]
14 118.790207 46.167194 63.831219 152.058487 -51.314072 90.605019 142.537537
15 118.790207 46.167194 63.831219 152.058487 -51.314072 90.605019 142.537537
16 118.790207 46.167194 63.831219 152.058487 -51.314072 90.605019 142.537537
17 118.790207 46.167194 63.831219 152.058487 -51.314072 90.605019 142.537537
18 118.790207 46.167194 63.831219 152.058487 -51.314072 90.605019 142.537537
